<svg width="100%" class="svg-motion" viewBox="0 0 94.941 103.785" preserveAspectRatio="xMidYMid meet" xmlns="http://www.w3.org/2000/svg" xmlns:xlink="http://www.w3.org/1999/xlink" xml:space="preserve">
<style type="text/css">@-webkit-keyframes k792a20c8{0%{-webkit-transform:translate(0,0);transform:translate(0,0);}100%{-webkit-transform:translate(-200%,0);transform:translate(-200%,0);}}@keyframes k792a20c8{0%{-webkit-transform:translate(0,0);transform:translate(0,0);}100%{-webkit-transform:translate(-200%,0);transform:translate(-200%,0);}}.r23d6ae2e{-webkit-animation:k792a20c8 500ms steps(2) infinite;animation:k792a20c8 500ms steps(2) infinite;}
</style>
<g class="r23d6ae2e">
<g transform="translate(-57.53 -96.607)" class="f2301eb03">
<g id="g695" transform="translate(-167.4 -121.843)">
<path id="path218" fill="#fff" stroke-width=".265" d="M286.444 242.905l.016-22.441 15.584-.31 5.027 24.077.479 2.463c5.48 24.689 8.202 65.154-22.027 72.284-21.349 5.028-47.934-1.661-53.51-26.458a39.351 39.351 0 0 1-.113-16.32l6.763-33.866 3.598-14.766 16.14.328-.807 14.287z" class="cls-1"/>
<path id="path220" stroke-width=".265" d="M272.053 321.206c-9.387 0-18.327-2.294-25.352-6.691-7.943-4.966-13.235-12.523-15.351-21.87a39.738 39.738 0 0 1-.12-16.595L238 242.15l3.725-15.28 17.365.355-.807 14.288 27.493.709.015-22.41 16.783-.334 5.133 24.607.47 2.463c2.051 9.236 5.094 27.128 2.382 42.963-2.868 16.743-11.247 26.868-24.908 30.09a59.402 59.402 0 0 1-13.597 1.604zm-32.766-78.745l-6.76 33.867a38.452 38.452 0 0 0 .111 16.044c2.05 9.118 7.014 16.198 14.756 21.042 10.091 6.313 24.278 8.155 37.955 4.93 13.096-3.09 21.14-12.857 23.907-29.028 1.146-6.702 2.363-21.13-2.38-42.47l-.475-2.472-4.908-23.53-14.39.286v22.474l-30.213-.794.794-14.287-14.933-.305z"/>
<path id="path222" fill="#f33" stroke-width=".265" d="M315.183 270.787s-.397-10.385-2.794-11.583c-2.397-1.199-24.76 1.587-39.137.794-14.378-.794-35.552-8.806-39.54-3.612-3.987 5.194-6.797 27.956 0 28.755 6.798.799 29.957-4.784 38.341-3.583 21.008 3.006 43.469 13.142 43.127 2.408-.288-9.189.003-13.179.003-13.179z" class="cls-8"/>
<path id="path224" stroke-width=".265" d="M308.904 289.443c-4.445 0-10.718-1.516-17.991-3.278-5.882-1.424-12.547-3.035-18.95-3.953-4.413-.63-13.388.714-21.307 1.9-7.09 1.058-13.79 2.066-17.018 1.688-1.518-.18-2.693-1.233-3.492-3.13-1.27-3.014-1.55-8.181-.77-14.177.73-5.598 2.193-10.392 3.823-12.51 2.75-3.571 11.859-1.687 22.408.496 6.07 1.256 12.345 2.553 17.692 2.852 7.517.42 17.296-.151 25.152-.609 8.509-.497 13.01-.727 14.245-.108 2.614 1.307 3.09 10.348 3.159 12.147v.074c0 .04-.286 4.075 0 13.11.058 1.807-.49 3.19-1.622 4.112-1.225.984-3.035 1.386-5.329 1.386zm-39.719-8.718a21.397 21.397 0 0 1 2.96.177c6.465.926 13.164 2.548 19.072 3.97 10.263 2.48 19.124 4.627 22.17 2.15.81-.656 1.18-1.65 1.137-3.043-.264-8.757-.029-12.76 0-13.21-.19-4.903-1.148-10.343-2.423-10.98-.982-.49-7.385-.117-13.579.246-7.89.46-17.708 1.034-25.302.61-5.445-.303-11.771-1.613-17.886-2.878-9.26-1.918-18.849-3.9-21.092-.984-2.892 3.773-5.538 19.087-2.892 25.365.6 1.427 1.418 2.21 2.429 2.329 3.05.36 9.665-.633 16.668-1.68 6.832-1.016 13.872-2.072 18.738-2.072z"/>
<path id="path226" fill="#fff" stroke-width=".265" d="M273.744 298.648a3.969 3.969 0 0 0-7.938 0" class="cls-1"/>
<path id="path228" stroke-width=".265" d="M274.405 298.648h-1.323a3.307 3.307 0 0 0-6.614 0h-1.323a4.63 4.63 0 0 1 9.26 0z"/>
</g>
</g>
<g transform="translate(37.411 -96.607)" class="f2301eb03">
<g id="g687" transform="translate(-275.511 -120.814)">
<path id="line230" fill="#fff" stroke-width=".265" d="M333.064 273.843l2.394-.082" class="cls-1"/>
<path id="rect232" stroke-width=".265" d="M323.503 284.408h2.397v1.323h-2.397z" transform="rotate(-1.96)"/>
<path id="path234" fill="#fff" stroke-width=".265" d="M393.6 242.905l1.074-17.679 15.584-.31 5.027 19.315.48 2.463c5.479 24.689 8.201 65.154-22.027 72.284-21.35 5.028-47.935-1.661-53.51-26.458a39.351 39.351 0 0 1-.113-16.32l6.106-30.58a45.048 45.048 0 0 1 1.791-6.448l2.464-6.845 16.14.329.25 9.525z" class="cls-1"/>
<path id="path236" stroke-width=".265" d="M380.268 321.206c-9.388 0-18.328-2.294-25.353-6.691-7.942-4.966-13.234-12.523-15.35-21.87a39.738 39.738 0 0 1-.12-16.595l6.104-30.58a46.262 46.262 0 0 1 1.82-6.541l2.625-7.292 17.256.35.249 9.524 25.471.71 1.059-17.648 16.719-.334 5.162 19.862.468 2.453c2.05 9.237 5.093 27.128 2.381 42.963-2.868 16.743-11.247 26.869-24.907 30.091a59.402 59.402 0 0 1-13.584 1.598zm-29.342-88.228l-2.302 6.398a44.418 44.418 0 0 0-1.768 6.35l-6.106 30.583a38.452 38.452 0 0 0 .11 16.044c2.051 9.118 7.015 16.198 14.757 21.043 10.09 6.313 24.28 8.154 37.954 4.929 13.097-3.09 21.14-12.856 23.908-29.027 2.672-15.61-.341-33.312-2.381-42.471l-.471-2.45-4.885-18.786-14.454.289-1.074 17.708-27.996-.783-.264-9.525z"/>
<path id="path238" fill="#f33" stroke-width=".265" d="M423.398 270.787s-.397-10.385-2.794-11.583c-2.398-1.199-24.76 1.587-39.138.794-14.377-.794-35.552-8.806-39.539-3.612-3.987 5.194-6.797 27.956 0 28.755 6.797.799 29.956-4.784 38.34-3.583 21.009 3.006 43.47 13.142 43.128 2.408-.288-9.189.003-13.179.003-13.179z" class="cls-8"/>
<path id="path240" stroke-width=".265" d="M417.119 289.443c-4.445 0-10.718-1.516-17.992-3.278-5.881-1.424-12.546-3.035-18.95-3.953-4.412-.63-13.387.714-21.306 1.9-7.09 1.058-13.79 2.066-17.018 1.688-1.519-.18-2.693-1.233-3.493-3.13-1.27-3.014-1.55-8.181-.77-14.177.73-5.598 2.194-10.392 3.824-12.51 2.749-3.571 11.858-1.687 22.407.496 6.07 1.256 12.346 2.553 17.693 2.852 7.517.42 17.296-.151 25.151-.609 8.512-.497 13.01-.727 14.245-.108 2.615 1.307 3.09 10.348 3.16 12.147v.074c0 .04-.286 4.075 0 13.11.058 1.807-.49 3.19-1.622 4.112-1.225.984-3.035 1.386-5.329 1.386zm-39.72-8.718a21.397 21.397 0 0 1 2.961.177c6.464.926 13.163 2.548 19.072 3.97 10.247 2.489 19.121 4.632 22.153 2.158.81-.656 1.18-1.65 1.135-3.043-.264-8.757-.026-12.76 0-13.21-.19-4.903-1.148-10.343-2.426-10.98-.976-.49-7.382-.117-13.576.246-7.89.46-17.711 1.034-25.302.61-5.445-.304-11.771-1.613-17.886-2.878-9.26-1.918-18.849-3.9-21.092-.984-2.874 3.765-5.52 19.079-2.874 25.357.6 1.427 1.419 2.21 2.43 2.329 3.05.36 9.664-.633 16.668-1.68 6.832-1.016 13.872-2.072 18.738-2.072z"/>
<path id="rect242" stroke-width=".265" d="M-170.291 387.035h9.525v1.323h-9.525z" transform="rotate(-80.41)"/>
<path id="rect244" stroke-width=".265" d="M-169.255 390.93h6.083v1.323h-6.083z" transform="rotate(-80.41)"/>
<path id="rect246" stroke-width=".265" d="M-182.665 389.788h7.763v1.323h-7.763z" transform="rotate(-82.49)"/>
<path id="rect248" stroke-width=".265" d="M396.643 219.405h1.323v5.821h-1.323z"/>
<path id="rect250" stroke-width=".265" d="M400.082 220.86h1.323v3.969h-1.323z"/>
<path id="rect252" stroke-width=".265" d="M405.11 217.421h1.323v7.144h-1.323z"/>
<circle id="circle254" cx="377.99" cy="298.648" r="3.969" fill="#fff" stroke-width=".265" class="cls-1"/>
<path id="path256" stroke-width=".265" d="M377.99 303.278a4.63 4.63 0 1 1 4.63-4.63 4.635 4.635 0 0 1-4.63 4.63zm0-7.937a3.307 3.307 0 1 0 3.307 3.307 3.313 3.313 0 0 0-3.307-3.307z"/>
<path id="line258" fill="#fff" stroke-width=".265" d="M427.16 261.13l-2.297.688" class="cls-1"/>
<path id="rect260" stroke-width=".265" d="M331.829 372.11h2.397v1.323h-2.397z" transform="rotate(-16.68)"/>
<path id="line262" fill="#fff" stroke-width=".265" d="M427.758 265.488l-2.384.246" class="cls-1"/>
<path id="rect264" stroke-width=".265" d="M395.698 307.527h2.397v1.323h-2.397z" transform="rotate(-5.92)"/>
<path id="line266" fill="#fff" stroke-width=".265" d="M427.93 273.645l-2.392-.122" class="cls-1"/>
<path id="rect268" stroke-width=".265" d="M-252.083 438.982h1.323v2.394h-1.323z" transform="rotate(-87.07)"/>
<path id="line270" fill="#fff" stroke-width=".265" d="M427.771 277.762l-2.397-.014" class="cls-1"/>
<path id="rect272" stroke-width=".265" d="M-276.254 426.775h1.323v2.394h-1.323z" transform="rotate(-89.71)"/>
<path id="line274" fill="#fff" stroke-width=".265" d="M333.36 278.23l2.336-.529" class="cls-1"/>
<path id="rect276" stroke-width=".265" d="M263.795 344.229h2.397v1.323h-2.397z" transform="rotate(-12.74)"/>
<path id="line278" fill="#fff" stroke-width=".265" d="M333.844 265.355l2.363.397" class="cls-1"/>
<path id="rect280" stroke-width=".265" d="M-206.763 373.358h1.323v2.397h-1.323z" transform="rotate(-80.42)"/>
<path id="line282" fill="#fff" stroke-width=".265" d="M334.503 261.156l2.333.543" class="cls-1"/>
<path id="rect284" stroke-width=".265" d="M-179.274 384.957h1.323v2.397h-1.323z" transform="rotate(-76.91)"/>
</g>
</g>
</g>
</svg>