
<svg width="100%" class="svg-motion" viewBox="0 0 1080 1920" preserveAspectRatio="xMidYMid meet" xmlns="http://www.w3.org/2000/svg" xmlns:xlink="http://www.w3.org/1999/xlink" xml:space="preserve">
<style type="text/css">@-webkit-keyframes k195de66c{0%{-webkit-transform:translate(0,0);transform:translate(0,0);}100%{-webkit-transform:translate(-200%,0);transform:translate(-200%,0);}}@keyframes k195de66c{0%{-webkit-transform:translate(0,0);transform:translate(0,0);}100%{-webkit-transform:translate(-200%,0);transform:translate(-200%,0);}}.r669a2113{-webkit-animation:k195de66c 500ms steps(2) infinite;animation:k195de66c 500ms steps(2) infinite;}
</style>
<g class="r669a2113">
<g transform="translate(-666.68 -97.37)" class="fb4e41ec5" fill="#ffffff" opacity="0.81">
<g id="g381" clip-path="url(#clipPath383)" transform="translate(668.68 21.33)">
<g id="g379">
<path id="rect12" fill="none" d="M0 78.04h1080v1920H0z" class="cls-2"/>
</g>
<g id="g48" clip-path="url(#clip-path)">
<g id="g18" class="cls-4">
<path id="path16" d="M2507.61 105.91c-3.5 142 3.33 283.89 7.6 425.74 4.11 136.69 3.25 273.26-.12 410-3.21 130.22-8.17 260.39-11.18 390.62-3 131.76-3.93 263.6.45 395.35 4.7 141.39 15.54 282.57 33.73 422.88q3.38 26 7.06 51.92c.27 1.9 3.16 1.1 2.9-.8-20.18-142.25-32.91-285.46-39-429-5.58-131.75-5.63-263.65-3.1-395.47 2.5-130 7.38-260 10.94-390 3.69-134.77 6.07-269.59 2.72-404.39-3.52-141.77-11-283.51-9.85-425.37q.21-25.71.84-51.43c0-1.93-3-1.93-3 0z" class="cls-5" transform="translate(-2437.64 -84.73)"/>
</g>
<g id="g22" class="cls-4">
<path id="path20" d="M2623.24 133.25q1.19 201.6 12.93 402.56c7.24 127.81 11.78 256.21 10 384.24-1.49 108.31-6.27 216.6-9.87 324.86-4.08 122.9-8.48 245.9-8.75 368.89-.09 41.62-.42 83.61 4.32 125 5.77 50.41 18.07 99.74 26 149.81 8.23 52.24 9.19 105.37 11.33 158.13l3.1 76.14c.07 1.93 3.07 1.94 3 0-2.15-52.81-3.85-105.67-6.84-158.45-2.84-50-11.26-98.41-20.72-147.48-7.11-36.83-13.64-73.83-15.56-111.34-1-19-1.31-37.92-1.48-56.89-1.1-118.68 3.26-237.47 7.08-356.07 3.7-115 8.45-230 10.93-345.05 2.69-124.63-1-249.73-7.46-374.19-6.39-122.1-12.78-243.93-14.32-366.23q-.47-37-.67-73.95a1.5 1.5 0 0 0-3 0z" class="cls-5" transform="translate(-2437.64 -84.73)"/>
</g>
<g id="g26" class="cls-4">
<path id="path24" d="M2739.74 119.81c-.1 132.87 6.88 265.59 10.21 398.39 3.3 131 1.71 261.4-12.26 391.76-14.57 136-7.13 273-.23 409.28 1.73 34.16 3.43 68.31 4.75 102.49 1.28 33 1.93 66 5.83 98.82 7.71 65 22.92 128.94 29.78 194.08 3.34 31.77 4.67 63.85 1.95 95.72-2.58 30.18-6.87 59.54-6.75 90 .25 58.58 8.57 116.92 7.47 175.51a327 327 0 0 1-3.07 40.52c-.28 1.89 2.61 2.7 2.89.8 7.92-55 .47-111.24-2.59-166.3-1.66-30-2.6-60-.51-90 2.16-31.12 7.42-61.42 7-92.76-.91-64.23-14.32-127.37-24.81-190.49-5.49-33-10.28-66.21-12.13-99.65-1.88-33.79-2.4-67.68-4-101.5-6.41-137.69-16.53-275.76-7.18-413.57 4.42-65.08 13-129.64 15.95-194.87 2.95-66 3.09-132.1 2-198.15-2.21-133.58-9.56-267-11.05-400.63q-.27-24.69-.25-49.38a1.5 1.5 0 0 0-3 0z" class="cls-5" transform="translate(-2437.64 -84.73)"/>
</g>
<g id="g30" class="cls-4">
<path id="path28" d="M2866.09 2099.56c-.32-136 5.79-271.75 13.41-407.46 7.49-133.64 15.92-267.26 19.27-401.09 1.63-65.3 2.88-130.76.23-196-2.43-60.16-7.41-120.19-12.24-180.19-5-62.19-10.07-124.4-12.63-186.75-1.2-29.46-1.84-59-1.48-88.44.36-29.44 2.92-58.71 3.94-88.11 4.55-130.64-27.38-260.58-14-391.18a496.51 496.51 0 0 1 7.74-50.17c.39-1.89-2.5-2.69-2.89-.8-26.58 128.47 2.24 259.4 6.17 388.58 1.83 60.19-4.76 120.17-3.87 180.4.9 61.68 5.15 123.27 9.92 184.75 4.83 62.23 10.38 124.4 14.08 186.71 3.67 61.93 4.05 123.78 3.15 185.8-2 135.35-9.73 270.5-17.48 405.61s-15 270.21-16.14 405.54q-.23 26.41-.16 52.84a1.5 1.5 0 0 0 3 0z" class="cls-5" transform="translate(-2437.64 -84.73)"/>
</g>
<g id="g34" class="cls-4">
<path id="path32" d="M3010.36 132.73c2.57 148.59 9.74 297 15.28 445.54 5.27 141.23 9 282.66 3.93 424-4 112.44-14.75 224.53-19.36 337q-7.71 187.73-6.21 375.84c1 134 5.41 268 15.49 401.6q1.8 24 3.88 47.89c.16 1.91 3.16 1.92 3 0-11.48-133-16.9-266.48-18.83-399.93q-2.76-191.43 4.06-382.86 2.88-82 7.7-163.87c3.29-54.88 8.19-109.66 11-164.56 7.29-140.49 4.93-281.27.2-421.79-5-147.51-12.45-294.93-16-442.49q-.69-28.18-1.17-56.37c0-1.93-3-1.94-3 0z" class="cls-5" transform="translate(-2437.64 -84.73)"/>
</g>
<g id="g38" class="cls-4">
<path id="path36" d="M3148.36 2109.73c3.58-137.82 4.74-275.64 2.3-413.49-2.21-124.63-5.74-249.22-6.79-373.88q-.55-64-.54-128c0-25 0-49.59 2.29-74.46 5-54.64 12.14-109.09 18.54-163.57 5.14-43.74 12.56-88.51 12.18-132.67-.56-65.12-4.75-130.24-8-195.26-2.8-55.53-7.47-111.79-5.11-167.42 3.77-89-8-177-13.05-265.75-1.21-21.47-1.92-43-1.8-64.46a1.5 1.5 0 0 0-3 0c-.51 90.84 14 180.91 15.83 271.66.59 29.89-1.63 59.68-1.26 89.55.36 29.07 1.65 58.14 3 87.18 3.13 67.64 7.25 135.25 9.45 202.94.71 21.57 1.62 43.16.14 64.71-1.57 22.91-4.1 45.76-6.64 68.58-6.35 57-13.7 113.84-19.86 170.83-2.18 20.23-4.47 40.53-5.4 60.86-1.78 38.44-.3 77.28-.13 115.76.58 131 3.69 261.93 6.4 392.9q4 195.25 0 390.5-.67 31.77-1.51 63.53c-.05 1.93 2.95 1.93 3 0z" class="cls-5" transform="translate(-2437.64 -84.73)"/>
</g>
<g id="g42" class="cls-4">
<path id="path40" d="M3295.44 106.21q9.42 237.38 8.1 475c-.94 131.41-4.75 262.77-10.61 394-5.22 117.14-12 234.2-18.49 351.27-6.35 115.5-12.18 231-15.58 346.66q-5.58 189.29-1.9 378.68.54 25.68 1.25 51.36c.05 1.92 3.05 1.93 3 0q-5.33-193.38-.52-386.83c2.83-116.3 8.26-232.51 14.51-348.68 6.25-116.17 13.17-232.42 18.71-348.69 6.14-128.89 10.51-257.86 12.13-386.89q2.88-230.67-5.21-461.31-1.11-32.31-2.39-64.62c-.08-1.93-3.08-1.94-3 0z" class="cls-5" transform="translate(-2437.64 -84.73)"/>
</g>
<g id="g46" class="cls-4">
<path id="path44" d="M3396.36 2186.73c4.52-134.85 6.06-269.69 7.8-404.59q2.06-157.87 15.65-315 4.88-56.58 10.61-113.08c4.34-43.25 10.43-86.55 13.53-129.91 1.76-24.56 0-49.41-2.08-73.9-2.79-33.5-6.82-66.9-11-100.26-21.57-173.5-50.42-349.77-38.14-525.09a1045.86 1045.86 0 0 1 13.15-107.61c3.89-22.22 9.15-44.16 13.21-66.33 11.75-64.21.7-130.44 6.82-195.12 1.12-11.81 2.62-24.29 7.74-35.14.82-1.74-1.76-3.26-2.59-1.51-10.53 22.33-9.56 50.7-9.92 74.76-.52 34.83.73 69.67-.35 104.49-1.69 54.31-17.19 106.78-24.36 160.5-23.28 174.42.91 351.76 23.05 525 8.64 67.57 19.19 135.55 21.71 203.72 1.17 31.81-3.05 62.88-6.39 94.48q-6.78 64.13-12.91 128.31c-10.52 111.64-18.17 223.37-20.21 335.5-2.26 123.85-2.63 247.69-6.19 371.52q-1 34.62-2.17 69.26c-.06 1.93 2.94 1.93 3 0z" class="cls-5" transform="translate(-2437.64 -84.73)"/>
</g>
</g>
</g>
</g>
<g transform="translate(411.32 -99.37)" class="fb4e41ec5" fill="#ffffff" opacity="0.81">
<g id="g304" clip-path="url(#clipPath306)" transform="translate(-668.68 21.6)">
<g id="g302" fill="none">
<path id="rect14" d="M1337.36 77.77h1080v1920h-1080z" class="cls-2"/>
</g>
<g id="g82" clip-path="url(#clip-path-2)">
<g id="g52" class="cls-4">
<path id="path50" d="M3845.25 86.18q-10.36 409.26-7 818.71 3.36 409.45 20.75 818.47 9.69 229.56 23.74 458.89c.11 1.92 3.11 1.94 3 0q-25-408.62-36.24-817.93-11.24-409.31-8.57-818.69 1.49-229.75 7.32-459.45c.05-1.93-2.95-1.93-3 0z" class="cls-5" transform="translate(-2437.64 -84.73)"/>
</g>
<g id="g56" class="cls-4">
<path id="path54" d="M3960.88 113.52l4.43 782.56 2.21 389.3c.72 128.5 1.19 257.15 10.72 385.36 5.34 71.87 14.49 143.37 20.64 215.16 6.18 72.26 8.09 144.83 11 217.28.08 1.92 3.08 1.93 3 0-2.62-64.59-4.33-129.31-9.15-193.78-4.78-64-12.71-127.73-18.6-191.64-11.8-128-13.56-256.6-14.37-385.06q-2.45-389.12-4.41-778.24l-2.5-440.94a1.5 1.5 0 0 0-3 0z" class="cls-5" transform="translate(-2437.64 -84.73)"/>
</g>
<g id="g60" class="cls-4">
<path id="path58" d="M4077 100.08l-.6 784.92c-.11 129.49-.25 259 .73 388.48 1 129.83 1.77 259.89 8.68 389.56 3.73 69.92 9.88 139.64 19.55 209 10.09 72.37 21.85 145.19 15 218.44-.18 1.92 2.82 1.91 3 0 5.95-63.14-1.93-126.16-10.74-188.65-9-63.87-16.51-127.72-20.93-192.1-8.85-129.29-9.84-259.14-11.11-388.69-2.53-260.29-1.07-520.64-.86-780.94l.36-440a1.5 1.5 0 0 0-3 0z" class="cls-5" transform="translate(-2437.64 -84.73)"/>
</g>
<g id="g64" class="cls-4">
<path id="path62" d="M4203.73 2079.83l-2.18-777.42c-.72-257.39-7.62-516 13.45-772.83a3433.07 3433.07 0 0 1 62.24-426.41c.4-1.88-2.49-2.69-2.89-.8a3443.82 3443.82 0 0 0-57.52 373.48c-12.56 128.3-17.16 257.17-18.53 386-2.76 259.91.48 520 1.2 779.9l1.23 438a1.5 1.5 0 0 0 3 0z" class="cls-5" transform="translate(-2437.64 -84.73)"/>
</g>
<g id="g68" class="cls-4">
<path id="path66" d="M4361.68 113.44l-.27 794.73-.27 790.68-.15 446a1.5 1.5 0 0 0 3 0l.27-794.73.27-790.68.15-446a1.5 1.5 0 0 0-3 0z" class="cls-5" transform="translate(-2437.64 -84.73)"/>
</g>
<g id="g72" class="cls-4">
<path id="path70" d="M4499.62 2128.09l.82-401.92.82-401.92.82-401.93c.14-66.07 1-132.2.19-198.27-.4-31.54-1.78-63.13-6.21-94.39-4.52-31.82-7.49-62-4.88-94.15 2.44-30 7.24-59.81 9.34-89.86A734.36 734.36 0 0 1 4513 351.2c12-59.35 29.08-117.79 35.83-178.12q2.55-22.79 2.86-45.73a1.5 1.5 0 0 0-3 0c-.79 62.47-16.19 123.06-30 183.61-6.69 29.33-13 58.79-17 88.64-4.09 30.5-5.18 61.32-8.8 91.9-3.46 29.3-7.1 58.71-5.91 88.28 1.26 31.6 8.48 62.65 10.51 94.25 4.22 65.87 1.81 132.34 1.68 198.3l-.83 401.93-.82 401.92-.82 401.92-.1 50a1.5 1.5 0 0 0 3 0z" class="cls-5" transform="translate(-2437.64 -84.73)"/>
</g>
<g id="g76" class="cls-4">
<path id="path74" d="M4633.08 86.48c16.93 259.49 8.4 519.72-5.83 779.11-14.25 259.8-34.12 519.38-39.56 779.58-3 146.15-1.44 292.44 8.16 438.33.12 1.92 3.12 1.93 3 0-17.08-259.47-8.63-519.71 5.57-779.1 14.22-259.8 34.11-519.38 39.62-779.58 3.1-146.15 1.56-292.44-8-438.34-.13-1.92-3.13-1.93-3 0z" class="cls-5" transform="translate(-2437.64 -84.73)"/>
</g>
<g id="g80" class="cls-4">
<path id="path78" d="M4733.74 2172.5c5.45-163.85 2.87-327.61-.64-491.46-3.13-146-4.73-292.1 4.13-438 5.19-85.54 13.61-170.87 24.75-255.84 4.23-32.25 7-63.69 6.23-96.26-.83-34.34-3.74-68.61-7-102.8-6.63-69.3-16-138.69-17.07-208.38-.61-40.75 5.16-80.7 9.68-121.08 5.78-51.48 11.32-103 15.87-154.6 1.67-18.9 3.43-37.85 4-56.82.87-28.69-7.52-57-10.13-85.48-1.9-20.72-1.16-41.7 7.77-60.85.81-1.74-1.77-3.26-2.59-1.51-16 34.25-7.12 72.93-1.63 108.6a254.81 254.81 0 0 1 2.59 57.98c-3.3 49.91-8.78 99.72-14.13 149.45-4.09 38-9.53 76-12.92 114-5.9 66.29 2.88 133.92 9.62 199.81 6.89 67.35 15.81 135.65 12.62 203.48-1.84 39.06-9.12 78-13.59 116.8q-7.35 63.9-12.48 128c-11.88 149.5-12.68 299.29-9.83 449.15 3 159.22 7.2 318.36 3.65 477.61q-.77 34.09-1.9 68.18c-.07 1.93 2.93 1.93 3 0z" class="cls-5" transform="translate(-2437.64 -84.73)"/>
</g>
</g>
</g>
</g>
</g>
</svg>