<svg width="100%" class="svg-motion" viewBox="0 0 72.963 36.373" preserveAspectRatio="xMidYMid meet" xmlns="http://www.w3.org/2000/svg" xmlns:xlink="http://www.w3.org/1999/xlink" xml:space="preserve">
<style type="text/css">@-webkit-keyframes ka4f0e8b4{0%{-webkit-transform:translate(0,0);transform:translate(0,0);}100%{-webkit-transform:translate(-200%,0);transform:translate(-200%,0);}}@keyframes ka4f0e8b4{0%{-webkit-transform:translate(0,0);transform:translate(0,0);}100%{-webkit-transform:translate(-200%,0);transform:translate(-200%,0);}}.r905df122{-webkit-animation:ka4f0e8b4 500ms steps(2) infinite;animation:ka4f0e8b4 500ms steps(2) infinite;}</style>

<g class="r905df122">
  <g transform="translate(-68.518 -130.314)" class="fa2637457">
    <g id="g13339" transform="translate(-201.654 -209.957)">
      <path id="path7074" fill="#fff" stroke-width=".265" d="M324.12 342.679c-14.885 3.027-27.908-1.89-43.024-1.67-1.733.027-3.595.188-4.942 1.44-1.622 1.51-1.323 8.73-1.828 11.078-1.434 6.596-3.3 8.667-3.175 18.785 0 .826.436 1.656.794 2.381.608 1.254 13.303-1.267 14.552-1.323 20.235-.91 28.702 1.707 48.948 2.503 1.725.067 3.571.104 5.027-.973 2.15-1.606 1.817-3.932 1.338-6.821-.478-2.89-.05-6.594-.264-9.525-.296-4.117.413-8.755-1.323-12.377-1.275-2.665-4.056-4.006-6.705-4.088-2.648-.082-6.924-.368-9.44.59" class="cls-1"/>
      <path id="path7076" stroke-width=".265" d="M336.638 376.564c-.424 0-.836-.016-1.228-.032-7.871-.307-13.859-.88-19.65-1.436-9.065-.868-16.894-1.62-29.232-1.059-.264 0-1.36.19-2.616.397-10.24 1.672-12.09 1.532-12.563.553l-.055-.116c-.368-.757-.794-1.614-.794-2.543-.095-7.308.833-10.462 1.908-14.113.426-1.45.867-2.947 1.275-4.82a28.678 28.678 0 0 0 .32-3.406c.246-3.995.513-6.908 1.704-8.017 1.474-1.373 3.458-1.587 5.382-1.614 6.061-.09 11.818.646 17.388 1.355 8.517 1.088 16.563 2.117 25.36.357 2.381-.9 6.086-.764 8.776-.664l.919.032c3.22.098 6.01 1.81 7.28 4.463 1.292 2.7 1.295 5.88 1.297 8.957 0 1.22 0 2.479.088 3.659.09 1.238.066 2.624.045 3.968-.03 1.895-.061 3.855.211 5.496.455 2.744.924 5.58-1.587 7.458-1.302.95-2.829 1.125-4.228 1.125zm-41.976-4.046c8.062 0 14.287.596 21.225 1.26 5.773.553 11.742 1.127 19.579 1.434 1.466.058 3.294.13 4.598-.844 1.783-1.323 1.572-3.215 1.082-6.183-.29-1.755-.264-3.776-.23-5.731.024-1.373.042-2.673-.042-3.853-.09-1.227-.09-2.51-.09-3.751 0-2.932 0-5.959-1.167-8.388-1.262-2.646-3.993-3.646-6.128-3.704l-.926-.034c-2.593-.096-6.14-.225-8.257.58l-.125-.329.074.36c-9.07 1.852-17.266.794-25.945-.31-5.524-.703-11.234-1.431-17.198-1.346-1.545.023-3.294.143-4.498 1.262-.894.833-1.127 4.622-1.283 7.128a28.218 28.218 0 0 1-.346 3.606c-.418 1.918-.868 3.44-1.3 4.913-1.058 3.548-1.947 6.615-1.852 13.721 0 .635.358 1.352.662 1.982 1.204.463 8.45-.72 11.213-1.172 1.587-.265 2.434-.394 2.767-.41 2.956-.132 5.663-.19 8.187-.19z"/>
      <path id="polygon7078" d="M1350.37 1035.24l40.1 17.83-2.03 4.57-49.9-22.18 49.82-24.35 2.19 4.49z" transform="matrix(.26458 0 0 .26458 -57.657 85.181)"/>
    </g>
  </g>
  <g transform="translate(4.45 -130.314)" class="fa2637457">
    <g id="g13344" transform="translate(-202.16 -253.081)">
      <path id="path7080" fill="#fff" stroke-width=".265" d="M326.502 386.79c-14.886 3.027-30.025-2.947-45.14-2.728-1.734.027-3.597.188-4.943 1.44-1.622 1.51-2.009 4.122-2.284 6.495q-1.354 11.684-2.712 23.368c-.095.82-.18 1.707.172 2.432.606 1.254 10.269 1.354 11.52 1.299 20.236-.91 32.348-.966 52.586-.17 1.725.066 3.575.104 5.027-.976 2.151-1.603 2.575-5.064 2.096-7.953-.48-2.89-1.633-5.623-1.852-8.554-.3-4.115 1.235-8.591-.498-12.213-1.275-2.665-4.056-4.006-6.704-4.088-2.649-.082-5.228.886-7.745 1.852" class="cls-1"/>
      <path id="path7082" stroke-width=".265" d="M282.242 419.768c-1.167 0-3.175-.037-5.172-.17-5.514-.365-5.877-1.11-6.07-1.513-.45-.929-.323-2.008-.233-2.797l2.712-23.368c.302-2.6.741-5.275 2.49-6.903 1.476-1.373 3.458-1.587 5.381-1.616 6.226-.09 12.536.873 18.632 1.804 8.703 1.323 17.701 2.704 26.387.94 2.286-.863 4.829-1.747 7.409-1.667 3.22.098 6.008 1.81 7.278 4.463 1.188 2.48.948 5.292.715 8.02a28.715 28.715 0 0 0-.154 4.431c.12 1.64.53 3.202.985 4.853a37.042 37.042 0 0 1 .854 3.64c.487 2.943.124 6.745-2.355 8.594-1.68 1.252-3.765 1.17-5.442 1.106-19.923-.794-32.197-.746-52.53.167-.151.01-.464.016-.887.016zm-10.073-2.302c.921.762 8.62 1.058 10.917.968 20.373-.915 32.674-.955 52.652-.17 1.466.06 3.294.13 4.599-.843 2.005-1.495 2.243-4.876 1.852-7.316a36.02 36.02 0 0 0-.823-3.513c-.442-1.638-.9-3.334-1.03-5.102a29.88 29.88 0 0 1 .154-4.64c.228-2.665.445-5.181-.587-7.335-1.262-2.646-3.993-3.646-6.128-3.704-2.548-.08-5.059.876-7.488 1.8l-.031-.085c-8.79 1.693-17.765.322-26.459-1.006-6.043-.923-12.287-1.878-18.412-1.788-1.548.023-3.297.142-4.498 1.262-1.418 1.323-1.805 3.73-2.08 6.085l-2.709 23.365c-.109.789-.164 1.49.071 2.022zm-.02-.019z"/>
      <path id="polygon7084" d="M1350.77 1198.26l40.94 23.65-2.5 4.32-49.07-28.34 49.22-24.06 2.2 4.49z" transform="matrix(.26458 0 0 .26458 -57.657 85.181)"/>
    </g>
  </g>
</g>
</svg>