<?xml version="1.0" encoding="UTF-8" standalone="no"?>
<!-- Created with Inkscape (http://www.inkscape.org/) -->

<svg
   width="207.52519mm"
   height="42.296776mm"
   viewBox="0 0 207.52519 42.296776"
   version="1.1"
   id="svg875"
   inkscape:version="1.2 (dc2aeda, 2022-05-15)"
   sodipodi:docname="field.svg"
   xmlns:inkscape="http://www.inkscape.org/namespaces/inkscape"
   xmlns:sodipodi="http://sodipodi.sourceforge.net/DTD/sodipodi-0.dtd"
   xmlns="http://www.w3.org/2000/svg"
   xmlns:svg="http://www.w3.org/2000/svg">
  <sodipodi:namedview
     id="namedview877"
     pagecolor="#ffffff"
     bordercolor="#000000"
     borderopacity="0.25"
     inkscape:showpageshadow="2"
     inkscape:pageopacity="0"
     inkscape:pagecheckerboard="true"
     inkscape:deskcolor="#d1d1d1"
     inkscape:document-units="mm"
     showgrid="false"
     inkscape:zoom="1.1487889"
     inkscape:cx="332.08888"
     inkscape:cy="159.73344"
     inkscape:window-width="1440"
     inkscape:window-height="783"
     inkscape:window-x="0"
     inkscape:window-y="25"
     inkscape:window-maximized="0"
     inkscape:current-layer="layer1" />
  <defs
     id="defs872" />
  <g
     inkscape:label="Layer 1"
     inkscape:groupmode="layer"
     id="layer1"
     transform="translate(-90.042491,-221.73718)">
    <path
       id="rect3153"
       style="display:inline;fill:#ffffff;stroke:none;stroke-width:0.264583"
       d="m 285.66156,223.05338 c -0.50407,0.005 -1.03497,0.0188 -1.59474,0.0424 -0.55976,0.0236 -1.1483,0.0563 -1.76681,0.0987 -0.61852,0.0424 -1.26685,0.0947 -1.94717,0.15606 -0.68032,0.0613 -1.39267,0.13212 -2.13786,0.21239 -0.74518,0.0803 -1.52319,0.17001 -2.33629,0.26923 -0.8131,0.0992 -1.66099,0.20787 -2.54506,0.32608 -1.76814,0.23642 -3.68123,0.51067 -5.75159,0.82321 -0.59233,0.0893 -1.24576,0.17506 -1.96009,0.25683 -0.71432,0.0818 -1.48997,0.15934 -2.32595,0.23358 -0.83598,0.0742 -1.73248,0.14517 -2.68976,0.21187 -0.95728,0.0667 -1.97531,0.12947 -3.05356,0.18862 -1.07825,0.0591 -2.21694,0.11428 -3.41581,0.16588 -1.19887,0.0516 -2.45788,0.0996 -3.77703,0.14366 -1.31915,0.044 -2.69813,0.0845 -4.13722,0.12092 -1.43909,0.0365 -2.9382,0.0688 -4.49688,0.0977 -3.11737,0.0578 -6.47339,0.10069 -10.06709,0.12816 -3.59369,0.0275 -7.42504,0.0396 -11.49232,0.0367 -4.06728,-0.003 -8.37064,-0.0209 -12.90877,-0.0543 -4.53813,-0.0334 -9.31123,-0.0819 -14.31747,-0.14573 -4.07127,-0.0519 -8.16098,-0.1123 -12.23647,-0.1788 -4.07548,-0.0665 -8.13662,-0.1392 -12.15068,-0.21652 -4.01405,-0.0773 -7.98103,-0.159 -11.86801,-0.2434 -3.88697,-0.0844 -7.69421,-0.17169 -11.38845,-0.25942 -7.38848,-0.17545 -14.32547,-0.35363 -20.54913,-0.51986 -6.22366,-0.16623 -11.73359,-0.32052 -16.26722,-0.44752 -3.30729,-0.0913 -6.055,-0.16778 -8.0946,-0.22169 -2.039606,-0.0539 -3.371353,-0.0853 -3.846278,-0.0853 -0.359835,0 -0.699802,-0.01 -1.020609,-0.0238 -0.320808,-0.0142 -0.622267,-0.0329 -0.905372,-0.0501 -0.336019,-0.0212 -0.633388,-0.0389 -0.896069,-0.047 -0.262681,-0.008 -0.491112,-0.007 -0.68988,0.01 -0.09938,0.008 -0.191296,0.0197 -0.276469,0.0362 -0.08517,0.0165 -0.163505,0.0379 -0.235645,0.0641 -0.07214,0.0262 -0.138152,0.0572 -0.198437,0.0946 -0.06029,0.0374 -0.114723,0.0808 -0.164331,0.13074 -0.06896,0.0688 -0.13273,0.15262 -0.19172,0.2527 -0.05899,0.10008 -0.113396,0.21644 -0.162781,0.34933 -0.04939,0.13289 -0.0937,0.28237 -0.133842,0.44959 -0.04014,0.16721 -0.0757,0.35194 -0.10697,0.555 -0.03126,0.20306 -0.05838,0.42466 -0.08113,0.66508 -0.02275,0.24042 -0.04121,0.49998 -0.05581,0.77928 -0.02919,0.55859 -0.04258,1.19656 -0.04134,1.91978 0.0012,0.72322 0.01722,1.53138 0.04599,2.43137 0.02877,0.89999 0.07011,1.8918 0.123506,2.9807 0.05339,1.0889 0.118675,2.2752 0.193787,3.56516 0.07511,1.28996 0.16032,2.68314 0.254248,4.1863 0.06615,1.05834 0.136262,2.05616 0.209289,2.9962 0.07303,0.94005 0.148795,1.82276 0.227377,2.65152 0.07858,0.82877 0.159553,1.60353 0.242362,2.32803 0.08281,0.72449 0.167504,1.39848 0.253215,2.02571 0.08571,0.62723 0.172647,1.20763 0.259932,1.7446 0.08728,0.53697 0.174984,1.03043 0.262516,1.48415 0.08753,0.45371 0.175031,0.86792 0.261483,1.2454 0.08645,0.37747 0.171752,0.71857 0.255799,1.02681 0.08405,0.30824 0.166699,0.58339 0.247013,0.8294 0.08031,0.24602 0.158324,0.46241 0.233577,0.65319 0.07525,0.19079 0.147658,0.35611 0.216525,0.49868 0.06887,0.14258 0.134183,0.26244 0.195337,0.3638 0.06115,0.10137 0.118418,0.18398 0.170532,0.25115 0.05211,0.0672 0.09933,0.11919 0.141076,0.15917 0.08349,0.0799 0.144736,0.11234 0.178801,0.12557 l 0.06098,-0.061 0.150895,-0.0475 c 0.04134,-0.0142 0.165447,-0.0539 0.384473,-0.11266 0.219025,-0.0587 0.532887,-0.13636 0.952913,-0.22634 0.420027,-0.09 0.946258,-0.19221 1.590601,-0.30024 0.644343,-0.10803 1.406591,-0.222 2.298566,-0.33486 0.44599,-0.0564 0.92434,-0.11227 1.4366,-0.16743 0.51227,-0.0552 1.05875,-0.10951 1.64021,-0.16175 0.58147,-0.0522 1.198,-0.10272 1.85157,-0.15038 0.65357,-0.0477 1.34415,-0.0924 2.07274,-0.13384 0.7286,-0.0414 1.49514,-0.0791 2.30167,-0.11266 0.80653,-0.0335 1.65303,-0.0628 2.54041,-0.0868 0.88739,-0.024 1.81576,-0.043 2.78691,-0.0558 0.97116,-0.0128 1.98488,-0.0196 3.04271,-0.0196 1.08347,0 2.21308,0.007 3.39049,0.0222 1.17741,0.0153 2.40277,0.039 3.6773,0.0713 1.27452,0.0323 2.59858,0.0735 3.9734,0.12454 1.37481,0.0511 2.80053,0.11185 4.27881,0.18346 1.47827,0.0716 3.00912,0.15363 4.59403,0.24753 1.58491,0.0939 3.22385,0.19934 4.91856,0.31729 1.69472,0.11795 3.44522,0.24847 5.25291,0.39222 1.8077,0.14376 3.67271,0.30101 5.59656,0.47233 1.41453,0.12609 2.87784,0.24494 4.38578,0.35656 1.50794,0.11162 3.06042,0.21586 4.65295,0.31368 1.59252,0.0978 3.22494,0.18918 4.89324,0.27388 1.6683,0.0847 3.37244,0.16287 5.1077,0.23513 1.73525,0.0723 3.50189,0.13845 5.29528,0.19896 1.79339,0.0605 3.6138,0.11543 5.45651,0.16484 1.84272,0.0494 3.70766,0.0933 5.59088,0.1323 1.88321,0.039 3.78449,0.073 5.69939,0.10232 3.8298,0.0586 7.71427,0.0983 11.6179,0.12195 3.90362,0.0237 7.82622,0.0316 11.73313,0.0258 3.90691,-0.006 7.79788,-0.025 11.63753,-0.0548 3.83965,-0.0298 7.62821,-0.07 11.33006,-0.11834 3.70185,-0.0484 7.31721,-0.10484 10.81071,-0.16639 3.4935,-0.0616 6.86539,-0.1286 10.08001,-0.19793 3.21461,-0.0693 6.27173,-0.14071 9.13691,-0.21239 2.86517,-0.0717 5.53829,-0.14326 7.98349,-0.21187 4.8904,-0.13721 8.87045,-0.2631 11.65768,-0.35553 2.78724,-0.0924 4.38181,-0.15177 4.50154,-0.15607 h 0.0315 c 0.0165,-0.0208 0.0369,-0.0513 0.0599,-0.0956 0.023,-0.0443 0.0484,-0.10213 0.0754,-0.17828 0.027,-0.0761 0.0556,-0.17041 0.0842,-0.2868 0.0286,-0.1164 0.0575,-0.2551 0.0853,-0.42013 0.0278,-0.16504 0.0546,-0.3562 0.0791,-0.57826 0.0245,-0.22207 0.0469,-0.47474 0.0656,-0.76223 0.0188,-0.28749 0.0338,-0.61022 0.0444,-0.97152 0.0106,-0.3613 0.0165,-0.76159 0.0165,-1.20509 0,-0.6694 -0.0124,-1.39444 -0.0346,-2.16524 -0.0222,-0.77081 -0.054,-1.5873 -0.0925,-2.4381 -0.0771,-1.7016 -0.1812,-3.54172 -0.28835,-5.43481 -0.0661,-1.12448 -0.1323,-2.28691 -0.19431,-3.46955 -0.062,-1.18265 -0.11989,-2.38547 -0.1695,-3.59048 -0.0496,-1.20501 -0.0909,-2.41234 -0.11989,-3.60392 -0.0289,-1.19157 -0.0455,-2.36752 -0.0455,-3.50986 0,-0.4822 -0.005,-0.94328 -0.0171,-1.3839 -0.012,-0.44061 -0.0309,-0.86037 -0.0589,-1.26038 -0.028,-0.40002 -0.0653,-0.78009 -0.11317,-1.1405 -0.0479,-0.36041 -0.10659,-0.7014 -0.17828,-1.0232 -0.0717,-0.3218 -0.1564,-0.62429 -0.2558,-0.90847 -0.0497,-0.14209 -0.10283,-0.28002 -0.1602,-0.41289 -0.0574,-0.13287 -0.11845,-0.2607 -0.18396,-0.38448 -0.0655,-0.12377 -0.13565,-0.24331 -0.20981,-0.35811 -0.0742,-0.11481 -0.15236,-0.22529 -0.23564,-0.33125 -0.0833,-0.10596 -0.17168,-0.20714 -0.26459,-0.30437 -0.0929,-0.0972 -0.1905,-0.19042 -0.29352,-0.27906 -0.16851,-0.14502 -0.35215,-0.2808 -0.5519,-0.40721 -0.19976,-0.1264 -0.41551,-0.24312 -0.64958,-0.35088 -0.23406,-0.10776 -0.48615,-0.2065 -0.75757,-0.29559 -0.27143,-0.0891 -0.56252,-0.16888 -0.87437,-0.23926 -0.31185,-0.0704 -0.64462,-0.13128 -0.99994,-0.18293 -0.35532,-0.0517 -0.73296,-0.0937 -1.13481,-0.12661 -0.40185,-0.0329 -0.82808,-0.0567 -1.27951,-0.0708 -0.45143,-0.0141 -0.9284,-0.0187 -1.43247,-0.0139 z" />
    <path
       d="m 216.12039,264.03396 c -22.69331,0 -45.67238,-0.46831 -62.09242,-1.93146 -43.10856,-3.84175 -56.7055,-0.40216 -57.964917,-0.0582 a 1.285875,1.285875 0 0 1 -1.166812,0.12436 c -3.085042,-1.15623 -3.947583,-14.99658 -4.233333,-19.54477 -0.873125,-13.97265 -0.93398,-17.67946 0.529166,-19.15319 0.838729,-0.83873 2.005542,-0.76465 3.481917,-0.67204 0.545041,0.0344 1.164166,0.0714 1.852083,0.0714 0.968375,0 5.349876,0.12435 11.977696,0.30956 136.81074,3.82058 153.41335,1.32292 158.86641,0.49212 17.22437,-2.5982 23.74371,-2.58233 26.82081,0.0661 2.032,1.7489 2.43152,4.54819 2.43152,8.78946 0,4.53231 0.28575,9.61496 0.52917,14.09964 0.52917,9.41917 0.74612,14.39069 -0.5424,15.61042 a 1.1826875,1.1826875 0 0 1 -0.89958,0.33073 c -1.55046,0.0503 -40.12671,1.46579 -79.58931,1.46579 z m -97.65771,-5.08 c 8.66775,0 20.2909,0.46038 35.68171,1.83092 45.26492,4.03489 140.61281,0.48683 141.5706,0.45244 h 0.0317 c 0.13229,-0.16669 0.51065,-0.94986 0.51065,-4.49792 0,-2.67758 -0.20109,-6.25211 -0.4154,-10.03829 -0.26458,-4.49792 -0.52916,-9.60438 -0.52916,-14.17373 0,-3.85763 -0.3228,-6.36852 -1.97115,-7.78669 -2.6961,-2.3204 -9.19692,-2.25954 -25.75983,0.24077 -9.47738,1.42875 -34.59163,1.89442 -74.64161,1.38377 -32.5702,-0.41539 -66.32575,-1.35731 -84.46029,-1.86531 -6.61458,-0.18256 -10.990793,-0.30692 -11.940647,-0.30692 -0.719666,0 -1.359958,-0.0397 -1.926166,-0.0741 -1.344084,-0.0847 -2.06375,-0.11113 -2.460625,0.2884 -1.103313,1.10066 -0.907521,6.10922 -0.156104,18.13454 1.058333,16.93333 3.082395,18.27741 3.354916,18.38325 l 0.06085,-0.0609 0.150813,-0.0476 c 0.330729,-0.11377 5.974303,-1.86267 22.899693,-1.86267 z m -23.17221,2.02142 z"
       id="path664"
       style="display:inline;stroke:#000000;stroke-width:0.264583;stroke-opacity:1" />
  </g>
</svg>
