<svg width="100%" class="svg-motion" viewBox="0 0 207.525 42.297" preserveAspectRatio="xMidYMid meet" xmlns="http://www.w3.org/2000/svg" xmlns:xlink="http://www.w3.org/1999/xlink" xml:space="preserve">
<style type="text/css">@-webkit-keyframes k2a4743d2{0%{-webkit-transform:translate(0,0);transform:translate(0,0);}100%{-webkit-transform:translate(-200%,0);transform:translate(-200%,0);}}@keyframes k2a4743d2{0%{-webkit-transform:translate(0,0);transform:translate(0,0);}100%{-webkit-transform:translate(-200%,0);transform:translate(-200%,0);}}.rabba27d7{-webkit-animation:k2a4743d2 500ms steps(2) infinite;animation:k2a4743d2 500ms steps(2) infinite;}</style>
<g class="rabba27d7">
<g transform="translate(-1.237 -127.352)" class="facc63c91">
<path id="path7048" stroke-width=".265" d="M-466.143 8.914c-1.273 0-1.852-.018-1.879-.02l-.367-.014-.183-.32c-.188-.334-4.59-8.271-2.884-19.889 1.262-8.572 1.397-13.367 1.471-15.944.058-2.116.082-2.91.643-3.413.476-.431 1.093-.391 2.03-.328.452.032 1.018.069 1.717.069.939 0 97.97.301 137.877 3.328 10.038.762 21.82-.296 32.218-1.227 14.216-1.276 25.442-2.284 29.226 1.174a4.035 4.035 0 0 1 1.344 3.093c0 3.81.15 8.263.296 12.57.447 13.214.495 19.14-.918 20.44a1.135 1.135 0 0 1-.894.307c-1.519-.114-96.573-7.144-141.698-3.29-36.66 3.15-52.898 3.464-58 3.464zm-1.447-1.323c2.5.048 17.727.12 59.332-3.44 44.837-3.84 138.716 3.051 141.849 3.284.193-.24.65-1.323.722-6.262.05-3.625-.103-8.234-.264-13.116-.146-4.318-.297-8.784-.297-12.615a2.723 2.723 0 0 0-.915-2.117c-3.352-3.064-15.428-1.981-28.213-.833-10.453.918-22.296 1.976-32.44 1.212-39.865-3.025-136.832-3.326-137.78-3.326-.743 0-1.322-.04-1.807-.072a4.006 4.006 0 0 0-1.058 0c-.135.175-.164 1.233-.198 2.461-.074 2.603-.212 7.45-1.485 16.1-1.452 9.864 1.765 17.124 2.554 18.714z" transform="translate(473.102 159.57)"/>
<path id="path13231" fill="#fff" stroke-width="4.756" d="M-1769.706 15.83c-5.246-13.796-5.609-38.693-1.306-89.595l3.14-37.148 195.442 3.198c107.492 1.759 235.288 5.423 283.99 8.143 61.372 3.427 105.896 3.423 145.071-.013 75.678-6.639 122.24-6.404 129.296.651 3.828 3.827 5.708 25.194 5.708 64.859v59.15l-53.51-3.186c-236.492-14.081-386.842-15.665-525.738-5.538-51.584 3.76-112.657 7.814-135.718 9.006-41.04 2.122-42.023 1.92-46.375-9.526z" transform="matrix(.26458 0 0 .26458 473.102 159.57)"/>
</g>
<g class="facc63c91" style="transform:translate(207.525px,0)">
<path id="path7056" stroke-width=".265" d="M-347.033-34.575c-22.693 0-45.672-.469-62.092-1.932-43.109-3.841-56.706-.402-57.965-.058a1.286 1.286 0 0 1-1.167.124c-3.085-1.156-3.948-14.996-4.233-19.544-.874-13.973-.934-17.68.529-19.153.838-.84 2.005-.765 3.482-.673.545.035 1.164.072 1.852.072.968 0 5.35.124 11.977.31 136.811 3.82 153.414 1.322 158.867.492 17.224-2.599 23.744-2.583 26.82.066 2.033 1.749 2.432 4.548 2.432 8.79 0 4.532.286 9.614.53 14.099.528 9.419.745 14.39-.543 15.61a1.183 1.183 0 0 1-.9.331c-1.55.05-40.126 1.466-79.589 1.466zm-97.658-5.08c8.668 0 20.291.46 35.682 1.83 45.265 4.036 140.613.488 141.57.453h.032c.133-.167.511-.95.511-4.498 0-2.677-.201-6.252-.415-10.038-.265-4.498-.53-9.604-.53-14.174 0-3.857-.322-6.368-1.97-7.786-2.697-2.32-9.198-2.26-25.76.24-9.478 1.429-34.592 1.895-74.642 1.384-32.57-.415-66.326-1.357-84.46-1.865-6.615-.183-10.991-.307-11.941-.307-.72 0-1.36-.04-1.926-.074-1.344-.085-2.064-.111-2.46.288-1.104 1.1-.908 6.11-.157 18.135 1.058 16.933 3.083 18.277 3.355 18.383l.06-.06.152-.049c.33-.113 5.974-1.862 22.9-1.862zm-23.172 2.021z" transform="translate(473.11 76.872)"/>
<path id="path13233" fill="#fff" stroke-width="4.756" d="M-1512.548-143.942c-32.7-2.536-103.844-4.898-158.098-5.248-82.826-.536-99.103-1.782-101.513-7.773-1.579-3.924-4.07-33.694-5.534-66.156l-2.665-59.022 32.831 3.152c18.057 1.734 156.974 4.394 308.704 5.911 221.48 2.215 287.489 1.428 334.785-3.992 32.4-3.713 64.13-5.753 70.511-4.533 16.696 3.191 20.405 17.989 20.405 81.39v56.016l-89.183 3.117c-121.686 4.252-337.956 2.744-410.243-2.862z" transform="matrix(.26458 0 0 .26458 473.11 76.872)"/>
</g>
</g>
</svg>