<svg width="100%" class="svg-motion" viewBox="0 0 217.859 141.621" preserveAspectRatio="xMidYMid meet" xmlns="http://www.w3.org/2000/svg" xmlns:xlink="http://www.w3.org/1999/xlink" xml:space="preserve">
<style type="text/css">@-webkit-keyframes k06811abf{0%{-webkit-transform:translate(0,0);transform:translate(0,0);}100%{-webkit-transform:translate(-200%,0);transform:translate(-200%,0);}}@keyframes k06811abf{0%{-webkit-transform:translate(0,0);transform:translate(0,0);}100%{-webkit-transform:translate(-200%,0);transform:translate(-200%,0);}}.r6e371b3b{-webkit-animation:k06811abf 500ms steps(2) infinite;animation:k06811abf 500ms steps(2) infinite;}</style>

<g class="r6e371b3b">
  <g transform="translate(3.93 -77.69)" class="f23d47279">
    <path id="path7052" stroke-width=".265" d="M10.447 219.152c-4.776 0-9.498-2.217-11.075-5.392-.561-1.13-.498-2.28-.437-3.395a11.718 11.718 0 0 0 .019-1.518c-1.712-21.254-1.072-38.868-.453-55.902.715-19.618 1.39-38.15-1.982-58.7-.357-2.185-.703-5.027-.185-7.641.577-2.89 2.138-5.027 4.638-6.35 2.064-1.093 11.047-.392 21.696.56 3.114.279 5.803.53 6.816.53 22.979.06 42.95-.91 62.262-1.852 34.327-1.67 66.751-3.244 108.743 1.587l-.15 1.323c-41.873-4.823-74.248-3.249-108.52-1.587-19.327.939-39.314 1.91-62.327 1.852-1.072 0-3.657-.233-6.932-.53-6.665-.597-19.074-1.706-20.958-.708-4.73 2.505-4.559 7.781-3.768 12.61C1.226 114.72.552 133.316-.166 153c-.618 16.997-1.256 34.57.448 55.748a12.1 12.1 0 0 1-.016 1.698c-.053.985-.103 1.913.302 2.734 1.526 3.074 6.836 5.156 11.599 4.55 35.906-4.577 67.342-3.826 100.624-3.03 23.762.57 48.334 1.157 76.602-.073 1.41-.061 2.855-.085 4.381-.111 7.303-.122 15.579-.265 17.727-5.054.37-.897.127-8.522 0-12.62-.095-3.06-.148-4.819-.1-5.361 1.947-21.23 1.17-39.47.264-60.59-.439-10.29-.891-20.928-1.058-32.7-.172-12.514-6.49-15.276-10.242-15.808l.185-1.323c9.716 1.38 11.3 11.308 11.377 17.102.16 11.753.611 22.382 1.059 32.66.902 21.167 1.68 39.453-.265 60.77-.042.49.03 2.778.106 5.2.264 8.201.312 12.26-.111 13.202-2.49 5.556-10.848 5.702-18.91 5.837-1.521.026-2.955.05-4.347.11-28.31 1.231-52.917.644-76.692.075-33.23-.794-64.617-1.545-100.425 3.019a14.817 14.817 0 0 1-1.895.116z"/>
    <path id="path12710" fill="#fff" stroke-width="4.756" d="M29.143 517.8l-13.094-11.263.318-195.002c.191-117.037-1.778-210.758-4.926-234.41-8.58-64.48-20.22-60.022 157.865-60.464 82.157-.203 220.009-2.218 306.338-4.476 115.134-3.011 175.975-2.537 228.309 1.778 73.69 6.077 87.59 10.316 98.078 29.912 8.422 15.736 15.663 268.313 10.672 372.265l-4.108 85.568-14.27 7.183c-12.331 6.207-53.022 7.027-299.655 6.035-255.571-1.028-342.73 1.243-426.777 11.12-22.568 2.653-27.233 1.66-38.75-8.246z" transform="matrix(.26458 0 0 .26458 -3.93 77.69)"/>
  </g>
  <g class="f23d47279" style="transform:translate(217.8px,0);">
    <path id="path7060" stroke-width=".265" d="M45.919 141.621c-9.877 0-19.74-.336-29.53-1.177-4.572-.392-10.872-1.368-12.811-5.279-.829-1.664-.609-3.46-.418-5.045A405.916 405.916 0 0 0 .723 15.65C.366 13.465.019 10.623.54 8.012c.574-2.892 2.135-5.027 4.636-6.35C8.11.109 11.708-.008 15.759 0 81.513.167 141.113.47 204.634 2.53l-.031.947.143-1.003c9.718 1.379 11.3 11.306 11.377 17.1l1.455 106.937c.018 1.534.042 3.273-.683 4.895-2.296 5.125-9.932 7.07-23.341 5.945-29.268-2.455-59.235-.408-88.212 1.587-19.524 1.315-39.497 2.683-59.423 2.683zM15.352 1.318c-3.705 0-6.988.148-9.557 1.508-4.728 2.506-4.556 7.781-3.765 12.61A407.27 407.27 0 0 1 4.46 130.28c-.177 1.468-.36 2.987.291 4.299 1.233 2.487 5.072 3.969 11.737 4.548 29.443 2.53 59.598.466 88.76-1.526 29.027-1.985 59.044-4.038 88.413-1.572 12.602 1.058 20.013-.683 22.024-5.167.606-1.355.585-2.871.566-4.337l-1.447-106.937c-.17-12.477-6.453-15.26-10.208-15.806v.066c-63.5-2.06-123.092-2.362-188.835-2.529z"/>
    <path id="path12712" fill="#fff" stroke-width="4.756" d="M65.034 523.587c-43.633-5.444-48.562-12.115-42.45-57.456 2.644-19.62 4.842-91.324 4.884-159.34.063-99.246-1.883-138.076-9.85-196.624-10.956-80.51-9.42-93.596 11.606-98.873 18.209-4.57 728.79 1.727 745.753 6.608 7.671 2.208 18.373 9.94 23.783 17.184 9.472 12.683 9.969 21.189 13.47 230.43 2.302 137.554 1.951 221.083-.956 227.677-2.574 5.838-11.511 12.324-20.34 14.762-8.662 2.392-68.163 3.38-132.225 2.195-80.55-1.49-151.684.288-230.63 5.764-132.09 9.16-319.386 13.12-363.045 7.673z" transform="scale(.26458)"/>
  </g>
</g>
</svg>
