<?xml version="1.0" encoding="UTF-8" standalone="no"?>
<!-- Created with Inkscape (http://www.inkscape.org/) -->

<svg
   width="217.30954mm"
   height="141.62122mm"
   viewBox="0 0 217.30954 141.62122"
   version="1.1"
   id="svg6650"
   inkscape:version="1.2 (dc2aeda, 2022-05-15)"
   sodipodi:docname="textarea.svg"
   xmlns:inkscape="http://www.inkscape.org/namespaces/inkscape"
   xmlns:sodipodi="http://sodipodi.sourceforge.net/DTD/sodipodi-0.dtd"
   xmlns="http://www.w3.org/2000/svg"
   xmlns:svg="http://www.w3.org/2000/svg">
  <sodipodi:namedview
     id="namedview6652"
     pagecolor="#ffffff"
     bordercolor="#000000"
     borderopacity="0.25"
     inkscape:showpageshadow="2"
     inkscape:pageopacity="0.0"
     inkscape:pagecheckerboard="true"
     inkscape:deskcolor="#d1d1d1"
     inkscape:document-units="mm"
     showgrid="false"
     inkscape:zoom="0.2102413"
     inkscape:cx="337.70719"
     inkscape:cy="221.17443"
     inkscape:window-width="1440"
     inkscape:window-height="783"
     inkscape:window-x="0"
     inkscape:window-y="25"
     inkscape:window-maximized="0"
     inkscape:current-layer="layer1" />
  <defs
     id="defs6647" />
  <g
     inkscape:label="Layer 1"
     inkscape:groupmode="layer"
     id="layer1"
     transform="translate(-15.934231,-90.274138)">
    <path
       d="m 61.578503,231.89535 c -9.876896,0 -19.740562,-0.33602 -29.530145,-1.17739 -4.572,-0.39159 -10.871729,-1.3679 -12.811125,-5.27844 -0.828146,-1.66423 -0.608542,-3.46075 -0.418042,-5.0456 A 405.91581,405.91581 0 0 0 16.382379,105.92458 c -0.357188,-2.18545 -0.703792,-5.02708 -0.182563,-7.638516 0.574146,-2.89189 2.135188,-5.02708 4.6355,-6.35 2.934229,-1.5531 6.532563,-1.66952 10.583333,-1.66158 65.75425,0.16669 125.354291,0.46831 188.875461,2.52942 l -0.0317,0.94721 0.14287,-1.00278 c 9.71815,1.37848 11.30036,11.305646 11.37709,17.100026 l 1.4552,106.93664 c 0.0185,1.53458 0.0423,3.2729 -0.68262,4.89479 -2.29658,5.12498 -9.93246,7.06967 -23.34154,5.94519 -29.26821,-2.45533 -59.23492,-0.40746 -88.21209,1.5875 -19.5236,1.31498 -39.496996,2.68287 -59.422767,2.68287 z M 31.011191,91.592114 c -3.704167,0 -6.987646,0.14816 -9.55675,1.50812 -4.728104,2.5056 -4.556125,7.781396 -3.765021,12.610036 a 407.27047,407.27047 0 0 1 2.431521,114.8424 c -0.177271,1.46843 -0.359833,2.98714 0.291042,4.29948 1.232958,2.48708 5.072062,3.96875 11.736916,4.54818 29.442833,2.52942 59.597396,0.46567 88.759771,-1.52664 29.02744,-1.98438 59.04442,-4.03754 88.41317,-1.57163 12.6021,1.05834 20.01308,-0.68262 22.02391,-5.16731 0.6059,-1.35467 0.58473,-2.87073 0.56621,-4.33652 L 230.46469,109.86158 C 230.29536,97.383834 224.0115,94.600424 220.25707,94.055384 v 0.0661 c -63.50001,-2.0611 -123.092109,-2.36273 -188.835775,-2.52941 z"
       id="path668"
       style="stroke-width:0.264583" />
    <path
       style="fill:#ffffff;stroke-width:4.75644"
       d="m 141.79736,866.0598 c -47.6528,-4.22714 -68.090409,-13.9758 -63.942966,-30.50052 1.424349,-5.67505 5.050323,-44.56436 8.057719,-86.42069 6.528845,-90.86715 2.881166,-199.50355 -10.12587,-301.57207 -11.112197,-87.19938 -9.554886,-92.81351 27.277847,-98.33692 12.31173,-1.84625 181.8202,-0.91277 376.68551,2.07441 381.2883,5.84494 367.75005,4.76766 382.04182,30.40024 4.37412,7.8451 6.94354,67.83986 9.62518,224.74177 2.01197,117.72187 2.63996,218.58469 1.39549,224.13964 -2.82385,12.6048 -24.78333,22.03249 -51.19617,21.97969 -11.08574,-0.0238 -72.59563,-0.42284 -136.68865,-0.89016 -66.1734,-0.48259 -161.00701,2.29564 -219.44724,6.42889 -130.64037,9.23977 -270.46503,12.67644 -323.68267,7.95572 z"
       id="path6805"
       transform="scale(0.26458333)" />
  </g>
</svg>
