<?xml version="1.0" encoding="UTF-8" standalone="no"?>
<!-- Created with Inkscape (http://www.inkscape.org/) -->

<svg
   width="217.85878mm"
   height="141.62122mm"
   viewBox="0 0 217.85878 141.62122"
   version="1.1"
   id="svg12639"
   inkscape:version="1.2 (dc2aeda, 2022-05-15)"
   sodipodi:docname="textarea.svg"
   xmlns:inkscape="http://www.inkscape.org/namespaces/inkscape"
   xmlns:sodipodi="http://sodipodi.sourceforge.net/DTD/sodipodi-0.dtd"
   xmlns="http://www.w3.org/2000/svg"
   xmlns:svg="http://www.w3.org/2000/svg">
  <sodipodi:namedview
     id="namedview12641"
     pagecolor="#ffffff"
     bordercolor="#000000"
     borderopacity="0.25"
     inkscape:showpageshadow="2"
     inkscape:pageopacity="0.0"
     inkscape:pagecheckerboard="true"
     inkscape:deskcolor="#d1d1d1"
     inkscape:document-units="mm"
     showgrid="false"
     inkscape:zoom="0.2102413"
     inkscape:cx="-290.1428"
     inkscape:cy="268.73882"
     inkscape:window-width="1440"
     inkscape:window-height="783"
     inkscape:window-x="0"
     inkscape:window-y="25"
     inkscape:window-maximized="0"
     inkscape:current-layer="layer3" />
  <defs
     id="defs12636" />
  <g
     inkscape:label="Layer 1"
     inkscape:groupmode="layer"
     id="layer1"
     transform="translate(3.929391,-77.689392)"
     style="display:inline">
    <path
       d="m 10.447096,219.15216 c -4.7757286,0 -9.49854105,-2.21721 -11.07545765,-5.39221 -0.56091665,-1.12977 -0.49741665,-2.2807 -0.43656255,-3.3946 a 11.718396,11.718396 0 0 0 0.018521,-1.51871 c -1.7118541,-21.25398 -1.0715624,-38.86729 -0.4524375,-55.90116 0.71437504,-19.61886 1.38906253,-38.15028 -1.9817291,-58.700464 -0.3571875,-2.18546 -0.7037917,-5.02709 -0.1852083,-7.64117 0.5767916,-2.88925 2.1378333,-5.02708 4.63814575,-6.35 2.06374995,-1.09273 11.04635335,-0.39158 21.69583235,0.56092 3.114146,0.27781 5.802313,0.52916 6.815667,0.52916 22.979062,0.0609 42.949812,-0.91016 62.261749,-1.85208 34.327034,-1.66952 66.751724,-3.24379 108.743744,1.5875 l -0.15081,1.32292 c -41.87296,-4.82336 -74.24738,-3.24909 -108.51885,-1.5875 -19.327813,0.93927 -39.314437,1.91029 -62.327896,1.85208 -1.071562,0 -3.656541,-0.23283 -6.932083,-0.52917 -6.664854,-0.59795 -19.0738117,-1.70656 -20.957645,-0.70908 -4.73075,2.50561 -4.5587708,7.7814 -3.7676666,12.61004 3.3919582,20.682484 2.71727075,39.277404 2.00024994,58.962404 -0.619125,16.99683 -1.25677084,34.57046 0.44714582,55.74771 a 12.099396,12.099396 0 0 1 -0.015875,1.69862 c -0.0529167,0.98425 -0.1031875,1.91294 0.30162499,2.73315 1.52664585,3.07445 6.83683325,5.15673 11.59933285,4.55083 35.906604,-4.57729 67.341749,-3.82588 100.623682,-3.02948 23.76223,0.56885 48.33408,1.15623 76.60217,-0.0741 1.41023,-0.0609 2.85485,-0.0847 4.3815,-0.11113 7.3025,-0.12171 15.57866,-0.26458 17.72708,-5.05354 0.37042,-0.89694 0.127,-8.52223 0,-12.62062 -0.0952,-3.05859 -0.14817,-4.81807 -0.10054,-5.36046 1.94733,-21.23017 1.16946,-39.47054 0.26458,-60.58959 -0.43921,-10.28964 -0.89165,-20.92854 -1.05833,-32.699854 -0.17198,-12.51479 -6.49023,-15.27704 -10.24202,-15.80885 l 0.1852,-1.32292 c 9.7155,1.38113 11.30036,11.30829 11.37709,17.10267 0.15875,11.752794 0.61119,22.381104 1.05833,32.660164 0.90223,21.16667 1.68011,39.45202 -0.26458,60.7695 -0.0423,0.48948 0.0291,2.77813 0.10583,5.19906 0.26458,8.20209 0.31221,12.2608 -0.11112,13.20271 -2.48973,5.55625 -10.84792,5.70177 -18.90977,5.83671 -1.52136,0.0265 -2.9554,0.0503 -4.34711,0.11113 -28.31041,1.23031 -52.91666,0.64293 -76.69212,0.0741 -33.229019,-0.79375 -64.616539,-1.54517 -100.425247,3.0189 a 14.816666,14.816666 0 0 1 -1.894417,0.11641 z"
       id="path7052"
       style="stroke-width:0.264583" />
    <path
       style="fill:#ffffff;stroke-width:4.75644"
       d="M 29.142751,517.79983 16.049436,506.53744 16.367342,311.5351 C 16.558144,194.49791 14.588529,100.77673 11.441045,77.124599 2.8605003,12.645106 -8.7791637,17.103166 169.30613,16.661346 c 82.15642,-0.203825 220.00843,-2.218042 306.3378,-4.476038 115.13418,-3.0114023 175.97537,-2.5376418 228.30909,1.777805 73.68976,6.07647 87.59069,10.316008 98.07821,29.912125 8.4218,15.736251 15.66229,268.313162 10.67155,372.265052 l -4.10809,85.56774 -14.26932,7.18284 c -12.33169,6.20744 -53.02212,7.02688 -299.65568,6.03474 -255.57074,-1.02811 -342.73009,1.24309 -426.776194,11.12108 -22.568272,2.65247 -27.233865,1.65952 -38.750745,-8.24686 z"
       id="path12710"
       transform="matrix(0.26458333,0,0,0.26458333,-3.929391,77.689392)" />
  </g>
  <g
     inkscape:groupmode="layer"
     id="layer3"
     inkscape:label="Layer 2"
     style="display:inline">
    <path
       d="m 45.91889,141.62122 c -9.8769,0 -19.74056,-0.33602 -29.53015,-1.17739 -4.572,-0.39159 -10.8717199,-1.3679 -12.8111199,-5.27844 -0.82815,-1.66423 -0.60854,-3.46075 -0.41804,-5.0456 A 405.91581,405.91581 0 0 0 0.72277014,15.650448 c -0.35719,-2.185458 -0.7038,-5.027083 -0.18257,-7.6385205 C 1.1143501,5.1200305 2.6753901,2.9848435 5.1757001,1.6619265 8.1099301,0.1088225 11.70827,-0.0075945 15.75904,3.4350115e-4 81.51329,0.1670305 141.11333,0.4686555 204.63449,2.5297605 l -0.0317,0.947208 0.14288,-1.002771 c 9.71814,1.378479 11.30035,11.3056465 11.37708,17.1000215 l 1.45521,106.936651 c 0.0185,1.53458 0.0423,3.2729 -0.68263,4.89479 -2.29658,5.12498 -9.93245,7.06967 -23.34154,5.94519 -29.2682,-2.45533 -59.23491,-0.40746 -88.21208,1.5875 -19.523604,1.31498 -39.497,2.68287 -59.42277,2.68287 z M 15.35158,1.3179685 c -3.70417,0 -6.9876499,0.148167 -9.5567499,1.508125 -4.72811,2.505604 -4.55613,7.7813965 -3.76502,12.6100425 a 407.27047,407.27047 0 0 1 2.43152,114.842404 c -0.17727,1.46843 -0.35984,2.98714 0.29104,4.29948 1.23296,2.48708 5.07206,3.96875 11.7369199,4.54818 29.44283,2.52942 59.59739,0.46567 88.75977,-1.52664 29.02743,-1.98438 59.04441,-4.03754 88.41316,-1.57163 12.60211,1.05834 20.01309,-0.68262 22.02392,-5.16731 0.60589,-1.35467 0.58473,-2.87073 0.56621,-4.33652 L 214.80508,19.587448 C 214.63574,7.1096975 208.35189,4.3262805 204.59745,3.7812395 v 0.06615 c -63.5,-2.061105 -123.0921,-2.36273 -188.83577,-2.529417 z"
       id="path7060"
       style="display:inline;stroke-width:0.264583"
       inkscape:label="path7060" />
    <path
       style="fill:#ffffff;stroke-width:4.75644"
       d="M 65.034163,523.58665 C 21.401285,518.1431 16.472123,511.47172 22.583123,466.13106 25.227543,446.51074 27.425946,374.80742 27.468464,306.79034 27.530503,207.54513 25.585139,168.71538 17.617669,110.1671 6.6616126,29.657438 8.1977223,16.571326 29.223847,11.294105 c 18.208917,-4.5701469 728.789633,1.7265 745.753613,6.608323 7.67095,2.207513 18.37294,9.939966 23.7822,17.183229 9.47202,12.683467 9.96921,21.188909 13.47042,230.431253 2.30164,137.5534 1.95095,221.08234 -0.95595,227.67572 -2.57385,5.838 -11.51158,12.32479 -20.34034,14.76256 -8.66195,2.39168 -68.16296,3.37935 -132.22435,2.19486 -80.55021,-1.48939 -151.68471,0.28824 -230.6299,5.76361 -132.09113,9.16128 -319.38642,13.11974 -363.045377,7.67299 z"
       id="path12712"
       transform="scale(0.26458333)" />
  </g>
</svg>
